<svg width="1567" height="669" viewBox="0 0 1567 669" fill="none" xmlns="http://www.w3.org/2000/svg">
<path d="M420.345 645.253C418.428 634.517 415.673 622.964 411.709 610.69C418.637 607.229 425.162 603.656 430.882 600.131C445.559 591.142 456.032 582.473 462.235 577.073C468.325 571.513 470.371 569.333 467.261 571.689C465.698 572.859 463.507 574.429 460.623 576.288C457.707 578.082 454.227 580.294 449.99 582.601C441.596 587.328 430.527 592.904 416.833 598.512C414.239 599.57 411.435 600.611 408.632 601.653C404.927 591.174 400.431 580.245 395.147 568.997C397.531 567.779 399.964 566.513 402.252 565.344C406.264 563.036 410.114 560.841 413.772 558.758C415.592 557.7 417.364 556.675 419.072 555.665C420.764 554.592 422.375 553.55 423.97 552.557C427.112 550.538 430.044 548.647 432.751 546.9C434.088 546.019 435.409 545.202 436.601 544.353C437.794 543.503 438.938 542.686 440.017 541.901C442.16 540.347 444.061 538.969 445.704 537.767C452.229 532.96 454.453 531.021 451.15 532.976C447.831 534.931 441.741 537.975 433.154 542.029C428.787 543.936 423.825 546.099 418.251 548.551C415.496 549.833 412.483 550.922 409.373 552.188C406.264 553.438 403.009 554.752 399.61 556.13C396.726 557.236 393.665 558.373 390.555 559.527C383.805 546.051 376.007 532.175 366.968 518.01C365.953 516.408 364.858 514.789 363.81 513.187C372.156 507.146 380.131 501.185 387.285 495.224C395.437 488.751 402.574 482.165 409.132 476.333C410.775 474.891 412.322 473.4 413.804 471.958C415.302 470.516 416.736 469.106 418.138 467.76C420.925 465.036 423.519 462.488 425.92 460.133C430.624 455.358 434.378 451.192 437.23 448.083C442.901 441.818 444.77 439.318 441.757 441.978C438.744 444.622 433.009 448.82 424.953 454.621C416.704 460.197 406.232 467.472 393.278 475.66C391.683 476.701 390.04 477.775 388.364 478.864C386.688 479.938 384.932 480.979 383.176 482.069C379.664 484.248 376.007 486.508 372.22 488.847C370.352 490.049 368.386 491.171 366.404 492.324C364.423 493.494 362.409 494.68 360.379 495.881C358.445 497.035 356.496 498.205 354.514 499.375C351.066 494.423 347.457 489.44 343.752 484.457C337.549 485.162 331.249 485.53 324.853 485.53C323.258 485.53 321.599 485.386 319.971 485.354C326.303 493.029 332.49 500.721 338.354 508.444C323.226 516.824 306.599 525.445 288.184 533.793C285.396 535.043 282.625 536.293 279.854 537.543C277.083 538.76 274.28 539.882 271.508 541.052C266.288 543.343 261.02 545.298 255.832 547.317C254.076 544.625 252.433 541.949 250.515 539.225C241.251 525.926 230.102 512.29 217.423 498.67C227.976 490.882 239.125 482.39 250.725 473.208L242.556 470.981L242.476 460.63C242.46 458.835 242.427 457.136 242.395 455.422C229.845 466.446 217.697 477.134 206.306 487.181C202.777 483.671 199.297 480.146 195.543 476.653C185.603 467.424 175.356 458.835 165.012 450.775C166.076 448.916 167.075 447.122 168.17 445.231C180.753 423.647 195.495 400.221 212.154 375.512C225.188 386.777 238.383 398.875 251.627 411.694L260.746 416.036C273.442 422.093 284.945 426.387 294.918 428.823C297.27 429.4 299.591 429.88 301.911 430.329C319.585 414.642 336.534 398.602 352.162 382.899C350.051 380.768 347.377 378.188 343.897 375.016C342.447 373.702 340.787 372.212 339.128 370.721C322.984 384.822 305.31 400.285 286.121 417.061C285.912 416.853 285.719 416.629 285.509 416.421C265.402 395.862 244.361 376.842 223.11 359.633C237.82 338.61 252.884 318.565 267.384 300.17C265.354 296.869 263.549 293.664 262.244 290.684C261.326 288.601 260.52 286.373 259.828 284.082C255.51 288.584 251.128 293.215 246.649 298.215C233.872 312.556 220.484 328.788 207.176 347.054C198.411 340.357 189.647 333.995 180.93 327.97C169.346 319.975 157.843 312.652 146.5 305.954C160.098 276.871 176.935 249.615 194.883 225.436C213.524 238.062 233.196 252.243 253.577 268.074C254.817 269.052 256.025 270.045 257.25 271.023C256.863 267.449 256.638 263.86 256.767 260.255C256.928 255.496 257.717 250.881 258.78 246.33C258.055 245.786 257.33 245.225 256.605 244.68C254.994 243.462 253.399 242.244 251.788 241.059C250.161 239.905 248.534 238.735 246.906 237.581C243.652 235.274 240.397 232.983 237.175 230.707C233.888 228.512 230.634 226.333 227.379 224.17C225.752 223.096 224.141 222.023 222.514 220.965C220.87 219.939 219.243 218.914 217.616 217.889C214.361 215.854 211.123 213.851 207.917 211.848C207.321 211.495 206.741 211.159 206.145 210.806C215.022 199.718 224.028 189.334 232.873 179.816C235.516 177.044 238.029 174.224 240.639 171.596C243.233 168.969 245.779 166.357 248.276 163.825C250.805 161.309 253.335 158.906 255.768 156.518C256.992 155.316 258.2 154.147 259.393 152.977C260.617 151.839 261.826 150.718 263.018 149.612C269.285 143.763 275.182 138.476 280.692 133.653C281.433 134.069 282.222 134.518 282.964 134.934C286.363 136.793 289.666 138.604 292.904 140.383C296.127 142.193 299.172 144.1 302.184 145.831C308.194 149.356 313.849 152.608 319.005 155.509C339.096 167.911 351.485 174.593 347.119 171.276C344.928 169.626 341.432 166.293 336.518 161.582C334.053 159.226 331.249 156.518 328.092 153.506C326.496 152.016 324.869 150.365 323.049 148.779C321.212 147.209 319.295 145.542 317.297 143.828C313.269 140.399 308.871 136.697 304.069 132.787C302.861 131.81 301.669 130.784 300.38 129.839C299.091 128.894 297.77 127.932 296.449 126.955C295.063 125.945 293.581 124.888 292.131 123.862C298.35 118.639 303.747 114.232 307.952 110.819C317.877 102.919 321.357 99.8108 316.362 103.24C313.865 104.954 310.337 107.198 305.826 109.986C303.57 111.38 301.137 113.014 298.431 114.729C295.74 116.475 292.759 118.302 289.65 120.401C289.279 120.641 288.828 120.962 288.458 121.202C288.345 121.122 288.248 121.042 288.135 120.962C285.268 118.927 282.287 116.844 279.21 114.713C276.068 112.694 272.781 110.723 269.414 108.672C266.031 106.637 262.567 104.57 258.99 102.487C257.234 101.413 255.333 100.484 253.448 99.5224C251.546 98.561 249.645 97.5995 247.696 96.6221C243.797 94.6993 239.962 92.7284 236.063 90.9498C233.856 90.0204 231.665 89.1231 229.474 88.2258C235.048 84.4923 240.607 80.871 246.117 77.506C263.066 67.1388 279.467 58.2937 294.693 51.0351C296.642 50.0897 298.527 49.2244 300.428 48.3111C307.501 51.0992 314.381 53.9674 320.938 56.8837C322.565 57.5887 324.16 58.2937 325.755 58.9988C327.318 59.7359 328.865 60.4569 330.395 61.178C333.457 62.6201 336.469 63.9501 339.321 65.4082C342.189 66.8183 344.976 68.1803 347.635 69.4782C350.277 70.8402 352.806 72.1541 355.207 73.404C364.841 78.4193 372.414 82.5855 377.086 85.1012C381.791 87.6009 383.643 88.3379 381.597 86.8477C379.551 85.3736 376.264 82.3611 371.608 78.1309C369.24 76.0799 366.501 73.7244 363.456 71.0966C360.395 68.4687 356.85 65.7447 353 62.7163C345.17 56.8676 335.777 50.1698 324.386 43.7604C322.324 42.5906 320.132 41.437 317.957 40.2833C337.887 31.5344 354.434 25.3813 365.663 21.1351C381.13 15.5749 386.721 13.2996 379.197 15.5909C375.443 16.7446 370.207 18.1867 363.569 19.9814C360.234 20.8146 356.609 21.9843 352.629 23.138C348.633 24.3077 344.299 25.5736 339.627 26.9356C331.088 29.6436 321.389 32.8163 310.756 36.6459C302.748 32.7361 294.064 28.9866 284.526 25.6697C281.949 24.7724 279.371 23.9712 276.793 23.1861C301.975 16.8728 328.317 13.4918 355.465 13.4918C443.642 13.4918 523.361 48.7277 581.442 105.884C520.074 40.8441 433.041 0 336.244 0C150.48 0 0 149.82 0 334.556C0 519.276 150.48 669 336.244 669C456.676 669 561.883 605.979 621.35 511.52C575.368 579.252 503.77 628.268 420.345 645.253ZM388.364 586.559C391.667 593 394.631 599.33 397.419 605.595C372.317 613.831 340.803 620.625 303.522 621.859C298.93 622.019 294.37 622.019 289.827 622.019C288.538 616.859 286.846 611.299 284.881 605.515C287.265 605.162 289.618 604.922 292.034 604.505C316.201 600.275 339.595 593.241 360.346 584.956C362.94 583.931 365.502 582.889 368.048 581.88C370.561 580.838 373.01 579.669 375.427 578.595C377.795 577.521 380.115 576.464 382.403 575.406C384.449 579.14 386.479 582.873 388.364 586.559ZM270.767 562.956C271.492 562.7 272.201 562.459 272.926 562.219C273.635 561.947 274.344 561.674 275.053 561.402C276.471 560.841 277.905 560.296 279.339 559.735C282.206 558.598 285.139 557.508 288.023 556.274C290.89 555.008 293.79 553.71 296.723 552.429C315.46 543.952 333.134 533.857 349.23 523.266C351.936 527.047 354.611 530.829 357.189 534.61C364.068 544.705 370.4 554.752 376.248 564.687C352.323 572.955 323.194 581.463 289.054 587.504C285.525 588.065 282.029 588.578 278.517 589.107C275.133 581.223 271.073 573.003 266.288 564.494C267.771 563.966 269.253 563.469 270.767 562.956ZM183.702 489.312C187.004 492.372 190.178 495.513 193.385 498.637C182.815 507.963 172.939 516.712 164.159 524.484C158.391 529.595 153.074 534.322 148.273 538.6C146.243 536.533 144.229 534.45 142.038 532.415C137.607 528.329 132.983 524.596 128.295 521.038C130.824 515.606 133.611 509.79 136.673 503.589C142.344 492.1 149.094 479.297 156.699 465.581C165.625 473.048 174.631 480.883 183.702 489.312ZM174.792 344.891C181.929 350.419 189.179 356.236 196.494 362.277C196.091 362.87 195.672 363.415 195.27 364.007C191.064 370.401 186.763 376.682 182.864 383.124C180.882 386.328 178.917 389.517 176.951 392.69C175.082 395.91 173.213 399.115 171.36 402.304C170.442 403.906 169.524 405.476 168.605 407.063C167.735 408.665 166.849 410.267 165.979 411.854C164.255 415.042 162.531 418.199 160.84 421.34C159.212 424.512 157.601 427.669 156.006 430.794C155.217 432.348 154.427 433.902 153.638 435.441C152.881 437.011 152.139 438.565 151.398 440.103C151.35 440.216 151.302 440.328 151.237 440.424C142.859 434.351 134.465 428.534 126.168 423.295C121.27 420.202 116.421 417.35 111.603 414.562C112.232 411.165 112.747 407.864 113.456 404.387C116.63 389.293 120.738 373.557 126.007 357.422C130.083 345.052 134.788 332.425 140.282 319.718C151.479 327.394 163.015 335.79 174.792 344.891ZM108.317 353.272C103.193 371.042 99.407 388.668 97.0225 405.669C96.9742 405.957 96.9581 406.23 96.9097 406.518C87.8229 401.759 79.0745 397.641 70.6805 394.164C70.6644 393.571 70.6483 392.978 70.616 392.369C70.5999 391.231 70.5999 390.078 70.5999 388.94C70.5838 386.649 70.5516 384.341 70.5355 382.018C70.5677 379.695 70.616 377.355 70.6483 374.984C70.6644 373.798 70.6805 372.612 70.7127 371.426C70.761 370.241 70.8094 369.039 70.8577 367.853C70.9544 365.45 71.051 363.046 71.1477 360.61C71.3088 358.207 71.4861 355.755 71.6472 353.288C71.7277 352.054 71.8244 350.82 71.8888 349.586C72.0016 348.352 72.1305 347.119 72.2433 345.869C73.065 335.902 74.515 325.759 76.2228 315.408C76.7061 312.828 77.1734 310.232 77.6567 307.637C78.1078 305.025 78.7523 302.429 79.3001 299.817C80.2506 295.106 81.5073 290.411 82.6996 285.668C84.649 286.614 86.5663 287.527 88.548 288.552C99.9226 294.385 111.877 301.339 124.267 309.223C117.967 323.788 112.667 338.578 108.317 353.272ZM130.035 296.596C114.616 288.232 99.697 281.31 85.4868 275.862C85.8574 274.596 86.1957 273.33 86.5985 272.08C87.0335 270.75 87.4685 269.436 87.9035 268.106C88.8057 265.446 89.5952 262.755 90.578 260.111C91.5447 257.467 92.5436 254.807 93.5264 252.115L94.2675 250.112L95.0892 248.125C95.637 246.795 96.1847 245.465 96.7325 244.135C97.8281 241.475 98.8915 238.783 100.148 236.155C101.356 233.511 102.565 230.852 103.789 228.192C105.11 225.58 106.432 222.936 107.769 220.292C108.445 218.978 109.074 217.632 109.799 216.35L111.958 212.473L114.117 208.595C114.842 207.297 115.518 205.999 116.324 204.749C117.855 202.217 119.385 199.702 120.916 197.186L122.076 195.295L123.284 193.453L125.733 189.783L128.166 186.114L129.342 184.335C144.889 193.34 162.322 203.964 181.253 216.334C162.999 238.607 144.97 265.222 130.035 296.596ZM239.898 112.085C241.767 113.014 243.636 113.944 245.505 114.857C247.374 115.786 249.259 116.652 251.063 117.677C254.72 119.664 258.362 121.603 261.987 123.51C263.807 124.455 265.612 125.4 267.4 126.33C268.302 126.794 269.205 127.259 270.091 127.708C270.977 128.173 271.847 128.701 272.717 129.182C273.49 129.615 274.231 130.031 274.988 130.464C265.451 137.162 254.817 145.029 243.12 154.595C234.13 162.094 224.479 170.411 214.7 180.009C207.482 187.027 200.055 194.638 192.643 202.938C191.322 202.217 190.017 201.48 188.712 200.759C185.538 199.013 182.397 197.282 179.287 195.584C176.145 193.949 173.036 192.331 169.991 190.745C168.46 189.959 166.93 189.174 165.415 188.389C163.901 187.636 162.386 186.899 160.872 186.162C157.859 184.688 154.911 183.23 151.978 181.835C146.597 179.304 141.393 176.964 136.302 174.721L137.108 173.615L138.477 171.885L141.184 168.456L143.89 165.043C144.793 163.905 145.679 162.751 146.645 161.662C161.548 143.892 177.934 127.932 194.851 113.944C201.086 108.784 207.401 103.977 213.733 99.3301C215.215 100.051 216.714 100.772 218.228 101.493C221.708 103.144 225.269 104.826 228.926 106.493C232.519 108.335 236.176 110.194 239.898 112.085ZM249.726 31.3741C259.119 33.9539 269.059 36.9664 279.419 40.5557C283.092 41.8215 286.734 43.1354 290.359 44.4814C283.737 47.1574 276.857 50.0736 269.704 53.3104C267.98 54.0795 266.224 54.8647 264.452 55.6499C262.712 56.4991 260.955 57.3644 259.183 58.2296C255.623 59.9762 252.014 61.7548 248.324 63.5815C244.667 65.4883 240.994 67.5233 237.223 69.5423C235.338 70.5678 233.453 71.5933 231.52 72.6348C229.651 73.7404 227.75 74.8621 225.849 75.9998C223.932 77.1375 222.014 78.2751 220.065 79.4448C218.373 80.4383 216.649 81.4959 214.974 82.5855C214.233 82.3451 213.491 82.0727 212.75 81.8163C208.884 80.5184 205.081 79.2846 201.376 78.0989C190.678 75.0864 180.576 72.8752 171.344 71.4491C195.253 54.7045 221.579 41.1485 249.726 31.3741ZM161.13 78.8039C161.919 79.0443 162.676 79.2686 163.482 79.525C168.573 80.9671 173.97 83.0982 179.787 85.1172C180.512 85.3896 181.253 85.5979 181.978 85.9024C182.703 86.2068 183.444 86.5113 184.185 86.7997C185.667 87.4086 187.166 88.0014 188.712 88.6264C190.243 89.2353 191.789 89.8441 193.368 90.4691C194.158 90.7735 194.963 91.094 195.753 91.3984C196.542 91.7349 197.332 92.1035 198.137 92.456C198.508 92.6162 198.895 92.7925 199.265 92.9527C196.397 94.9877 193.546 97.0227 190.613 99.1218C188.583 100.516 186.666 102.102 184.684 103.608C182.719 105.147 180.721 106.701 178.723 108.255C162.886 120.962 147.032 135.72 132.242 153.025C130.437 155.236 128.617 157.432 126.78 159.659C125.862 160.781 124.96 161.886 124.025 163.008C123.123 164.145 122.269 165.331 121.383 166.485C121.012 166.966 120.642 167.462 120.287 167.959C119.868 167.799 119.417 167.591 118.998 167.414C107.366 162.735 97.0225 159.018 88.2257 156.086C108.059 126.474 132.725 100.34 161.13 78.8039ZM85.4385 160.428C93.623 164.578 103.387 169.738 114.487 175.891C113.343 177.541 112.199 179.192 111.039 180.874C107.575 185.761 104.498 190.969 101.26 196.177C99.6648 198.788 98.2309 201.512 96.7003 204.204C95.9431 205.55 95.1858 206.912 94.4286 208.274C93.6714 209.636 93.0108 211.046 92.2858 212.44C90.8841 215.229 89.4824 218.033 88.0807 220.821C86.7918 223.657 85.5029 226.493 84.2301 229.329C82.909 232.149 81.7812 235.034 80.6212 237.902L78.8973 242.196L78.0434 244.343L77.27 246.523C76.2389 249.423 75.2078 252.323 74.1928 255.207C73.21 258.108 72.3561 261.04 71.4377 263.94C70.9866 265.382 70.5194 266.84 70.1005 268.299C69.9232 268.956 69.746 269.613 69.5688 270.27C59.8698 267.241 50.7024 265.174 42.1473 263.94C50.4285 226.541 65.2671 191.642 85.4385 160.428ZM34.6233 332.729C34.6233 311.194 36.7983 290.171 40.8745 269.837C44.419 270.702 48.044 271.68 51.8141 272.913C56.7925 274.532 61.9965 276.503 67.3293 278.714C67.0876 279.611 66.846 280.509 66.6526 281.406C65.9921 284.322 65.3154 287.239 64.6548 290.155C64.0104 293.055 63.5109 295.987 62.9309 298.872C62.657 300.33 62.3831 301.772 62.1093 303.214C61.8837 304.656 61.6581 306.114 61.4326 307.556C60.9976 310.457 60.482 313.325 60.1437 316.209C58.597 327.714 57.7431 339.059 57.2597 350.163C56.8408 361.267 56.9697 372.131 57.3886 382.659C57.5014 384.838 57.6786 386.953 57.8075 389.116C51.0408 386.745 44.6445 384.87 38.7156 383.604C36.0572 367.02 34.6233 350.051 34.6233 332.729ZM39.8434 389.789C45.5951 391.969 51.798 394.741 58.4197 398.09C58.8547 403.217 59.3542 408.265 59.9342 413.2C62.3187 432.829 65.7987 450.919 69.7782 467.119C71.6472 474.746 73.6127 481.909 75.6105 488.671C58.5003 458.418 46.2557 425.121 39.8434 389.789ZM83.1507 492.677C80.444 480.547 77.8178 466.879 75.6105 451.801C73.5322 437.427 71.9533 421.708 71.0994 404.916C78.7845 409.258 86.8402 414.177 95.3147 419.705C92.318 448.323 92.8497 474.666 95.0731 496.795C95.2342 498.333 95.4114 499.807 95.5886 501.313C91.738 499.567 87.9196 498.061 84.1174 496.747C83.779 495.385 83.4568 494.071 83.1507 492.677ZM91.0291 513.363C92.2375 514.1 93.4297 514.741 94.6542 515.526C95.6853 516.167 96.7325 516.92 97.7636 517.593C98.1342 519.885 98.5048 522.128 98.8753 524.275C96.1847 520.702 93.5908 517.065 91.0291 513.363ZM104.095 485.642C104.208 479.778 104.514 473.657 104.885 467.295C105.352 460.95 105.835 454.348 106.609 447.554C107.253 441.545 108.107 435.328 109.074 429.015C112.876 431.659 116.678 434.319 120.577 437.171C128.279 442.811 136.221 448.964 144.261 455.39C143.826 456.367 143.375 457.361 142.94 458.322C141.587 461.286 140.346 464.251 139.121 467.167C137.913 470.099 136.673 472.952 135.545 475.804C130.985 487.181 127.135 497.932 123.88 507.771C122.978 510.543 122.14 513.235 121.335 515.863C115.663 511.953 109.863 508.556 104.079 505.496C103.95 499.246 103.934 492.661 104.095 485.642ZM116.082 534.386C115.325 537.366 114.664 540.122 114.052 542.734C111.168 539.465 108.333 536.133 105.594 532.736C105.304 529.467 105.046 525.99 104.804 522.352C108.784 525.189 112.812 528.281 116.856 531.534C116.598 532.479 116.324 533.473 116.082 534.386ZM117.21 546.372C118.547 543.087 120.078 539.465 121.786 535.54C124.96 538.216 128.134 541.004 131.324 543.92C133.128 545.586 134.852 547.317 136.608 549.032C133.064 552.204 130.035 554.944 127.537 557.22C123.993 553.678 120.561 550.057 117.21 546.372ZM128.987 558.71C131.952 556.835 135.448 554.624 139.637 551.964C145.792 558.149 151.559 564.542 156.763 571.016C155.716 571.096 154.556 571.224 153.541 571.304C149.819 571.497 146.323 571.737 143.085 571.785C138.268 567.555 133.531 563.212 128.987 558.71ZM166.994 590.885C161.548 586.943 156.2 582.889 151.012 578.627C154.814 579.092 158.971 579.428 163.321 579.685C163.45 579.861 163.595 580.021 163.707 580.197C166.35 583.915 168.702 587.648 170.909 591.35C169.62 591.19 168.251 591.045 166.994 590.885ZM152.913 543.407C160.115 538.728 168.219 533.377 177.289 527.191C185.409 521.647 194.238 515.494 203.631 508.764C217.632 522.993 230.666 537.623 241.928 552.252C241.96 552.3 241.992 552.332 242.025 552.381C240.897 552.781 239.785 553.182 238.657 553.534C235.951 554.415 233.276 555.281 230.618 556.146L228.636 556.803L226.638 557.38C225.317 557.764 223.996 558.149 222.675 558.534C217.439 560.152 212.251 561.386 207.208 562.732C204.662 563.325 202.165 563.901 199.7 564.478C198.46 564.751 197.235 565.055 196.027 565.312C194.802 565.552 193.594 565.792 192.386 566.017C185.393 567.475 178.82 568.484 172.488 569.333C167.252 560.681 160.727 551.948 152.913 543.407ZM178.433 580.021C185.039 579.989 191.967 579.685 199.426 579.076C204.131 578.547 209.045 578.13 214.039 577.297C216.553 576.913 219.098 576.544 221.676 576.095C224.238 575.599 226.848 575.086 229.474 574.557C230.795 574.301 232.116 574.028 233.453 573.756C234.775 573.452 236.112 573.131 237.449 572.811C240.124 572.154 242.846 571.497 245.601 570.824C248.292 570.087 251.015 569.269 253.77 568.484C258.925 575.983 263.566 583.386 267.69 590.597C263.372 591.158 259.07 591.718 254.801 592.087C249.194 592.728 243.652 592.984 238.19 593.401C235.451 593.577 232.745 593.625 230.07 593.753C227.379 593.866 224.721 593.994 222.095 593.978C219.469 594.01 216.859 594.042 214.281 594.074C211.719 594.026 209.174 593.994 206.676 593.946C205.42 593.914 204.163 593.914 202.939 593.866C201.714 593.817 200.49 593.753 199.265 593.705C196.832 593.577 194.432 593.529 192.063 593.353C189.196 593.177 186.505 592.92 183.766 592.68C182.284 588.546 180.56 584.348 178.433 580.021ZM202.165 613.094C197.171 610.386 192.289 607.534 187.456 604.569C187.423 604.409 187.375 604.249 187.327 604.089C198.524 606.188 210.881 607.822 224.415 608.607C240.381 609.424 257.862 608.928 276.229 606.732C277.357 609.072 278.436 611.379 279.435 613.655C280.708 616.507 281.836 619.263 282.899 621.971C266.337 621.682 250.209 620.465 235.113 618.51C223.432 617.02 212.428 615.129 202.165 613.094ZM251.82 634.71C263.34 636.328 275.601 637.337 288.393 637.594C288.57 638.139 288.764 638.731 288.925 639.26C289.553 641.423 290.02 643.314 290.536 645.285C277.308 642.593 264.403 638.988 251.82 634.71ZM355.545 651.855C334.536 651.855 314.026 649.788 294.145 645.942C293.984 644.548 293.871 643.234 293.662 641.728C293.484 640.43 293.194 638.94 292.985 637.578C296.674 637.594 300.316 637.674 304.086 637.546C316.572 637.081 328.994 635.863 341.013 633.78C353.032 631.697 364.648 628.861 375.556 625.416C384.852 622.5 393.504 619.055 401.64 615.449C404.379 622.179 406.876 628.813 408.954 635.19C410.243 639.148 411.355 642.994 412.402 646.775C393.922 650.06 374.959 651.855 355.545 651.855Z" fill="#444444"/>
<path d="M440.777 275.172C434.918 282.476 418.312 299.346 392.178 323.584C389.88 325.736 387.459 327.966 385.008 330.244C388.246 333.165 391.175 335.867 393.719 338.302C399.162 331.972 404.25 325.861 408.845 320.159C410.449 318.18 411.991 316.248 413.502 314.363C414.997 312.478 416.416 310.593 417.804 308.803C420.548 305.19 423.154 301.86 425.451 298.687C430.031 292.341 433.854 287.094 436.537 282.947C441.965 274.701 443.707 271.543 440.777 275.172Z" fill="#444444"/>
<path d="M256.797 460.02C256.718 447.727 256.259 437.046 255.404 427.978C268.783 434.444 280.865 439.01 291.616 441.66C302.367 444.31 312.754 445.651 322.777 445.651C332.404 445.651 341.429 444.007 349.821 440.702C358.229 437.398 364.61 432.736 368.996 426.717C373.366 420.699 375.709 413.802 375.962 406.027C376.137 401.509 375.567 397.263 374.284 393.319C373.002 389.36 370.88 385.369 367.871 381.282C364.863 377.211 359.59 371.703 352.069 364.774C344.532 357.862 333.86 348.299 320.022 336.134L306.199 323.905C300.974 319.243 296.255 314.614 292.043 310.016C287.831 305.418 284.332 301.012 281.53 296.813C278.711 292.614 276.574 288.783 275.085 285.35C273.597 281.918 272.473 278.102 271.728 273.888C270.984 269.673 270.668 265.379 270.826 260.972C271.206 249.829 274.579 239.404 280.96 229.714C287.325 220.007 296.683 212.232 309.017 206.405C321.352 200.578 337.47 197.657 357.374 197.657C371.64 197.657 389.104 199.604 409.768 203.484C409.736 211.817 410.274 222.051 411.414 234.168C392.002 227.175 374.284 223.679 358.229 223.679C347.177 223.679 337.882 225.515 330.298 229.187C322.729 232.859 316.918 237.568 312.865 243.3C308.811 249.031 306.674 254.922 306.468 260.972C306.341 264.596 306.737 268.125 307.64 271.557C308.542 274.989 309.983 278.262 311.931 281.375C314.717 285.909 318.232 290.475 322.444 295.073C326.656 299.671 332.499 305.274 339.972 311.868C341.841 313.416 348.982 319.499 361.395 330.131C373.809 340.732 382.834 348.954 388.471 354.797C394.124 360.624 398.589 366.036 401.882 371.017C405.176 375.998 407.678 381.378 409.403 387.141C411.129 392.904 411.889 399.146 411.652 405.883C411.288 416.244 408.738 425.791 404.004 434.524C399.27 443.273 392.667 450.425 384.196 455.996C375.725 461.568 366.367 465.511 356.138 467.842C345.91 470.173 335.285 471.338 324.233 471.338C315.382 471.338 306.246 470.668 296.857 469.295C287.436 467.89 274.088 464.809 256.797 460.02Z" fill="#444444"/>
<path d="M495.552 467.537L503.084 394.248L513.444 257.218L515.093 227.383C515.497 219.852 515.869 211.2 516.208 201.458C545.819 201.586 576.157 201.65 607.207 201.65L669.92 201.458H689.962C688.734 210.495 687.812 219.58 687.23 228.745L669.774 227.768C665.459 227.495 658.024 227.303 647.469 227.175C636.931 227.047 626.473 226.982 616.113 226.982C585.176 226.982 563.615 227.175 551.395 227.575L544.607 318.795C564.778 319.179 582.865 319.372 598.867 319.372C616.307 319.372 639.194 319.115 667.528 318.587C666.299 327.672 665.378 336.645 664.812 345.489L597.169 344.912C583.932 344.912 565.49 345.185 541.875 345.698L534.925 441.996L555.388 442.189C592.514 442.189 617.131 442.061 629.285 441.804C641.424 441.548 655.648 440.971 671.94 440.042C670.679 449.655 669.774 458.821 669.192 467.521C637.61 467.249 610.94 467.121 589.185 467.121L495.552 467.537Z" fill="#444444"/>
<path d="M762.396 467.537C766.628 434.015 770.681 393.041 774.587 344.633C778.493 296.224 781.548 248.504 783.755 201.458C792.906 201.586 799.851 201.65 804.639 201.65L823.154 201.458L812.402 324.955L803.495 441.418L841.244 441.61C869.352 441.61 889.109 441.53 900.597 441.322C912.053 441.13 923.165 440.697 933.934 440.056C932.839 448.292 931.859 457.458 930.96 467.537C900.892 467.265 874.32 467.137 851.262 467.137L762.396 467.537Z" fill="#444444"/>
<path d="M1002.55 467.537L1006.95 422.702L1014.18 329.33L1020.04 237.319C1020.34 231.999 1020.61 226.664 1020.79 221.344L1021.28 201.458L1041.08 201.65L1059.73 201.458C1056.3 233.938 1053.41 267.861 1051.04 303.21C1047.06 359.872 1043.7 414.658 1040.98 467.537L1022.92 467.137C1020.63 467.137 1013.84 467.265 1002.55 467.537Z" fill="#444444"/>
<path d="M1129.77 460.02C1129.69 447.727 1129.2 437.046 1128.34 427.978C1142.05 434.444 1154.43 439.01 1165.47 441.66C1176.48 444.31 1187.13 445.651 1197.38 445.651C1207.25 445.651 1216.48 444.007 1225.09 440.702C1233.69 437.398 1240.25 432.736 1244.74 426.717C1249.22 420.699 1251.6 413.802 1251.88 406.027C1252.06 401.509 1251.47 397.263 1250.16 393.319C1248.86 389.36 1246.67 385.369 1243.59 381.282C1240.51 377.211 1235.12 371.703 1227.41 364.774C1219.69 357.862 1208.74 348.299 1194.57 336.134L1180.41 323.905C1175.06 319.243 1170.22 314.614 1165.9 310.016C1161.59 305.418 1157.99 301.012 1155.12 296.813C1152.23 292.614 1150.04 288.783 1148.53 285.35C1146.99 281.918 1145.85 278.102 1145.09 273.888C1144.31 269.673 1144 265.379 1144.16 260.972C1144.55 249.829 1148.01 239.404 1154.55 229.714C1161.07 220.007 1170.66 212.232 1183.3 206.405C1195.94 200.578 1212.45 197.657 1232.85 197.657C1247.45 197.657 1265.35 199.604 1286.52 203.484C1286.49 211.817 1287.04 222.051 1288.19 234.168C1268.32 227.175 1250.14 223.679 1233.69 223.679C1222.38 223.679 1212.83 225.515 1205.07 229.187C1197.3 232.859 1191.35 237.568 1187.19 243.3C1183.04 249.031 1180.85 254.922 1180.64 260.972C1180.51 264.596 1180.91 268.125 1181.84 271.557C1182.78 274.989 1184.24 278.262 1186.23 281.375C1189.09 285.909 1192.69 290.475 1196.99 295.073C1201.31 299.671 1207.29 305.274 1214.95 311.868C1216.87 313.416 1224.18 319.499 1236.9 330.131C1249.61 340.732 1258.87 348.954 1264.65 354.797C1270.44 360.624 1275.02 366.036 1278.39 371.017C1281.77 375.998 1284.33 381.378 1286.11 387.141C1287.88 392.904 1288.65 399.146 1288.4 405.883C1288.05 416.244 1285.43 425.791 1280.57 434.524C1275.71 443.273 1268.95 450.425 1260.27 455.996C1251.57 461.568 1241.98 465.511 1231.52 467.842C1221.05 470.173 1210.15 471.338 1198.84 471.338C1189.76 471.338 1180.41 470.668 1170.79 469.295C1161.17 467.89 1147.49 464.809 1129.77 460.02Z" fill="#444444"/>
<path d="M1372.31 467.537L1379.83 394.248L1390.2 257.218L1391.84 227.383C1392.24 219.852 1392.61 211.2 1392.95 201.458C1422.57 201.586 1452.89 201.65 1483.96 201.65L1546.66 201.458H1566.72C1565.49 210.495 1564.57 219.58 1563.99 228.745L1546.52 227.768C1542.2 227.495 1534.78 227.303 1524.21 227.175C1513.65 227.047 1503.21 226.982 1492.85 226.982C1461.91 226.982 1440.35 227.175 1428.13 227.575L1421.35 318.795C1441.53 319.179 1459.61 319.372 1475.62 319.372C1493.06 319.372 1515.95 319.115 1544.28 318.587C1543.04 327.672 1542.13 336.645 1541.55 345.489L1473.9 344.912C1460.67 344.912 1442.22 345.185 1418.62 345.698L1411.65 441.996L1432.12 442.189C1469.23 442.189 1493.88 442.061 1506.02 441.804C1518.15 441.548 1532.37 440.971 1548.67 440.042C1547.4 449.655 1546.5 458.821 1545.92 467.521C1514.33 467.249 1487.66 467.121 1465.92 467.121L1372.31 467.537Z" fill="#444444"/>
<path d="M256.797 460.02C256.718 447.727 256.259 437.046 255.404 427.978C268.783 434.444 280.865 439.01 291.616 441.66C302.367 444.31 312.754 445.651 322.777 445.651C332.404 445.651 341.429 444.007 349.821 440.702C358.229 437.398 364.61 432.736 368.996 426.717C373.366 420.699 375.709 413.802 375.962 406.027C376.137 401.509 375.567 397.263 374.284 393.319C373.002 389.36 370.88 385.369 367.871 381.282C364.863 377.211 359.59 371.703 352.069 364.774C344.532 357.862 333.86 348.299 320.022 336.134L306.199 323.905C300.974 319.243 296.255 314.614 292.043 310.016C287.831 305.418 284.332 301.012 281.53 296.813C278.711 292.614 276.574 288.783 275.085 285.35C273.597 281.918 272.473 278.102 271.728 273.888C270.984 269.673 270.668 265.379 270.826 260.972C271.206 249.829 274.579 239.404 280.96 229.714C287.325 220.007 296.683 212.232 309.017 206.405C321.352 200.578 337.47 197.657 357.374 197.657C371.64 197.657 389.104 199.604 409.768 203.484C409.736 211.817 410.274 222.051 411.414 234.168C392.002 227.175 374.284 223.679 358.229 223.679C347.177 223.679 337.882 225.515 330.298 229.187C322.729 232.859 316.918 237.568 312.865 243.3C308.811 249.031 306.674 254.922 306.468 260.972C306.341 264.596 306.737 268.125 307.64 271.557C308.542 274.989 309.983 278.262 311.931 281.375C314.717 285.909 318.232 290.475 322.444 295.073C326.656 299.671 332.499 305.274 339.972 311.868C341.841 313.416 348.982 319.499 361.395 330.131C373.809 340.732 382.834 348.954 388.471 354.797C394.124 360.624 398.589 366.036 401.882 371.017C405.176 375.998 407.678 381.378 409.403 387.141C411.129 392.904 411.889 399.146 411.652 405.883C411.288 416.244 408.738 425.791 404.004 434.524C399.27 443.273 392.667 450.425 384.196 455.996C375.725 461.568 366.367 465.511 356.138 467.842C345.91 470.173 335.285 471.338 324.233 471.338C315.382 471.338 306.246 470.668 296.857 469.295C287.436 467.89 274.088 464.809 256.797 460.02Z" fill="#444444"/>
<path d="M495.552 467.537L503.084 394.248L513.444 257.218L515.093 227.383C515.497 219.852 515.869 211.2 516.208 201.458C545.819 201.586 576.157 201.65 607.207 201.65L669.92 201.458H689.962C688.734 210.495 687.812 219.58 687.23 228.745L669.774 227.768C665.459 227.495 658.024 227.303 647.469 227.175C636.931 227.047 626.473 226.982 616.113 226.982C585.176 226.982 563.615 227.175 551.395 227.575L544.607 318.795C564.778 319.179 582.865 319.372 598.867 319.372C616.307 319.372 639.194 319.115 667.528 318.587C666.299 327.672 665.378 336.645 664.812 345.489L597.169 344.912C583.932 344.912 565.49 345.185 541.875 345.698L534.925 441.996L555.388 442.189C592.514 442.189 617.131 442.061 629.285 441.804C641.424 441.548 655.648 440.971 671.94 440.042C670.679 449.655 669.774 458.821 669.192 467.521C637.61 467.249 610.94 467.121 589.185 467.121L495.552 467.537Z" fill="#444444"/>
<path d="M762.396 467.537C766.628 434.015 770.681 393.041 774.587 344.633C778.493 296.224 781.548 248.504 783.755 201.458C792.906 201.586 799.851 201.65 804.639 201.65L823.154 201.458L812.402 324.955L803.495 441.418L841.244 441.61C869.352 441.61 889.109 441.53 900.597 441.322C912.053 441.13 923.165 440.697 933.934 440.056C932.839 448.292 931.859 457.458 930.96 467.537C900.892 467.265 874.32 467.137 851.262 467.137L762.396 467.537Z" fill="#444444"/>
<path d="M1002.55 467.537L1006.95 422.702L1014.18 329.33L1020.04 237.319C1020.34 231.999 1020.61 226.664 1020.79 221.344L1021.28 201.458L1041.08 201.65L1059.73 201.458C1056.3 233.938 1053.41 267.861 1051.04 303.21C1047.06 359.872 1043.7 414.658 1040.98 467.537L1022.92 467.137C1020.63 467.137 1013.84 467.265 1002.55 467.537Z" fill="#444444"/>
<path d="M1129.77 460.02C1129.69 447.727 1129.2 437.046 1128.34 427.978C1142.05 434.444 1154.43 439.01 1165.47 441.66C1176.48 444.31 1187.13 445.651 1197.38 445.651C1207.25 445.651 1216.48 444.007 1225.09 440.702C1233.69 437.398 1240.25 432.736 1244.74 426.717C1249.22 420.699 1251.6 413.802 1251.88 406.027C1252.06 401.509 1251.47 397.263 1250.16 393.319C1248.86 389.36 1246.67 385.369 1243.59 381.282C1240.51 377.211 1235.12 371.703 1227.41 364.774C1219.69 357.862 1208.74 348.299 1194.57 336.134L1180.41 323.905C1175.06 319.243 1170.22 314.614 1165.9 310.016C1161.59 305.418 1157.99 301.012 1155.12 296.813C1152.23 292.614 1150.04 288.783 1148.53 285.35C1146.99 281.918 1145.85 278.102 1145.09 273.888C1144.31 269.673 1144 265.379 1144.16 260.972C1144.55 249.829 1148.01 239.404 1154.55 229.714C1161.07 220.007 1170.66 212.232 1183.3 206.405C1195.94 200.578 1212.45 197.657 1232.85 197.657C1247.45 197.657 1265.35 199.604 1286.52 203.484C1286.49 211.817 1287.04 222.051 1288.19 234.168C1268.32 227.175 1250.14 223.679 1233.69 223.679C1222.38 223.679 1212.83 225.515 1205.07 229.187C1197.3 232.859 1191.35 237.568 1187.19 243.3C1183.04 249.031 1180.85 254.922 1180.64 260.972C1180.51 264.596 1180.91 268.125 1181.84 271.557C1182.78 274.989 1184.24 278.262 1186.23 281.375C1189.09 285.909 1192.69 290.475 1196.99 295.073C1201.31 299.671 1207.29 305.274 1214.95 311.868C1216.87 313.416 1224.18 319.499 1236.9 330.131C1249.61 340.732 1258.87 348.954 1264.65 354.797C1270.44 360.624 1275.02 366.036 1278.39 371.017C1281.77 375.998 1284.33 381.378 1286.11 387.141C1287.88 392.904 1288.65 399.146 1288.4 405.883C1288.05 416.244 1285.43 425.791 1280.57 434.524C1275.71 443.273 1268.95 450.425 1260.27 455.996C1251.57 461.568 1241.98 465.511 1231.52 467.842C1221.05 470.173 1210.15 471.338 1198.84 471.338C1189.76 471.338 1180.41 470.668 1170.79 469.295C1161.17 467.89 1147.49 464.809 1129.77 460.02Z" fill="#444444"/>
<path d="M1372.31 467.537L1379.83 394.248L1390.2 257.218L1391.84 227.383C1392.24 219.852 1392.61 211.2 1392.95 201.458C1422.57 201.586 1452.89 201.65 1483.96 201.65L1546.66 201.458H1566.72C1565.49 210.495 1564.57 219.58 1563.99 228.745L1546.52 227.768C1542.2 227.495 1534.78 227.303 1524.21 227.175C1513.65 227.047 1503.21 226.982 1492.85 226.982C1461.91 226.982 1440.35 227.175 1428.13 227.575L1421.35 318.795C1441.53 319.179 1459.61 319.372 1475.62 319.372C1493.06 319.372 1515.95 319.115 1544.28 318.587C1543.04 327.672 1542.13 336.645 1541.55 345.489L1473.9 344.912C1460.67 344.912 1442.22 345.185 1418.62 345.698L1411.65 441.996L1432.12 442.189C1469.23 442.189 1493.88 442.061 1506.02 441.804C1518.15 441.548 1532.37 440.971 1548.67 440.042C1547.4 449.655 1546.5 458.821 1545.92 467.521C1514.33 467.249 1487.66 467.121 1465.92 467.121L1372.31 467.537Z" fill="#444444"/>
<path d="M1525.84 619.726L1525.47 615.201C1525.47 614.705 1525.3 613.135 1524.97 610.49C1531.33 613.259 1537.2 614.643 1542.57 614.643C1545.38 614.643 1547.76 614.271 1549.7 613.528C1551.64 612.784 1553.09 611.689 1554.04 610.242C1555.03 608.755 1555.53 607.226 1555.53 605.655C1555.53 604.787 1555.38 603.92 1555.1 603.052C1554.85 602.184 1554.46 601.357 1553.92 600.572C1553.38 599.746 1552.57 598.857 1551.5 597.907C1550.47 596.915 1548.28 595.076 1544.93 592.39C1541.62 589.704 1539.1 587.617 1537.37 586.129C1535.67 584.6 1534.21 583.051 1532.97 581.48C1531.77 579.869 1530.88 578.257 1530.3 576.645C1529.72 575.034 1529.43 573.401 1529.43 571.748C1529.43 569.103 1530.26 566.541 1531.91 564.062C1533.61 561.582 1536.02 559.743 1539.16 558.545C1542.35 557.305 1546.07 556.685 1550.32 556.685C1555.07 556.685 1560.3 557.243 1566.01 558.359C1566.17 561.582 1566.38 564.537 1566.63 567.223C1562 565.322 1557.43 564.372 1552.93 564.372C1550.49 564.372 1548.21 564.702 1546.11 565.364C1544.04 565.983 1542.51 566.934 1541.52 568.215C1540.57 569.496 1540.09 570.901 1540.09 572.43C1540.09 573.422 1540.26 574.372 1540.59 575.281C1540.92 576.191 1541.5 577.182 1542.33 578.257C1543.19 579.29 1544.23 580.323 1545.43 581.356C1546.62 582.389 1549 584.332 1552.55 587.183C1556.15 590.034 1558.61 592.142 1559.93 593.506C1561.25 594.869 1562.39 596.274 1563.34 597.721C1564.29 599.167 1564.97 600.614 1565.39 602.06C1565.84 603.465 1566.07 604.911 1566.07 606.399C1566.07 609.292 1565.2 611.978 1563.46 614.457C1561.77 616.937 1559.23 618.858 1555.84 620.222C1552.45 621.586 1548.65 622.268 1544.43 622.268C1542.66 622.268 1540.57 622.144 1538.17 621.896C1535.78 621.689 1533.73 621.421 1532.04 621.09C1530.38 620.801 1528.32 620.346 1525.84 619.726Z" fill="#444444"/>
<path d="M1419.65 620.904L1420.34 611.916C1420.46 610.015 1420.62 607.019 1420.83 602.928L1422.32 565.178C1422.36 562.078 1422.38 559.723 1422.38 558.111C1424.32 558.152 1426.1 558.173 1427.71 558.173C1429.45 558.173 1431.16 558.152 1432.86 558.111L1432.3 569.641C1433.7 567.326 1434.96 565.487 1436.08 564.124C1437.24 562.76 1438.75 561.5 1440.61 560.343C1442.46 559.185 1444.57 558.297 1446.93 557.677C1449.32 557.016 1451.8 556.685 1454.37 556.685C1456.14 556.685 1457.9 556.892 1459.64 557.305C1461.37 557.718 1462.96 558.297 1464.41 559.041C1465.9 559.785 1467.16 560.632 1468.19 561.582C1469.26 562.533 1470.11 563.566 1470.73 564.682C1471.39 565.797 1472.05 567.409 1472.71 569.517C1475.24 564.764 1478.38 561.438 1482.14 559.537C1485.94 557.636 1490.17 556.685 1494.84 556.685C1497.82 556.685 1500.69 557.161 1503.46 558.111C1506.27 559.061 1508.5 560.425 1510.15 562.202C1511.81 563.979 1512.9 565.839 1513.44 567.781C1514.02 569.682 1514.31 571.604 1514.31 573.546C1514.31 575.529 1514.16 578.505 1513.87 582.472C1513.58 586.439 1513.25 592.493 1512.88 600.634C1512.51 608.734 1512.3 615.49 1512.26 620.904C1510.07 620.821 1508.36 620.78 1507.12 620.78C1505.79 620.78 1503.83 620.821 1501.23 620.904C1501.68 615.325 1502.08 609.25 1502.41 602.68L1503.21 587.307C1503.42 583.588 1503.52 580.385 1503.52 577.699C1503.52 575.302 1503.27 573.443 1502.78 572.12C1502.28 570.756 1501.48 569.537 1500.36 568.463C1499.29 567.388 1497.94 566.583 1496.33 566.045C1494.72 565.467 1492.88 565.178 1490.81 565.178C1489.16 565.178 1487.63 565.364 1486.23 565.735C1484.91 566.107 1483.62 566.665 1482.38 567.409C1481.02 568.194 1479.8 569.165 1478.73 570.322C1477.65 571.438 1476.74 572.699 1476 574.104C1475.21 575.55 1474.57 577.265 1474.08 579.249C1473.46 581.728 1473.02 584.766 1472.78 588.361C1472.49 592.204 1472.26 597.266 1472.09 603.548L1471.6 620.904C1469.2 620.821 1467.4 620.78 1466.21 620.78C1465.09 620.78 1463.21 620.821 1460.56 620.904C1460.98 615.78 1461.31 610.511 1461.56 605.097L1462.3 590.096C1462.51 585.468 1462.61 581.522 1462.61 578.257C1462.61 576.149 1462.4 574.372 1461.99 572.926C1461.58 571.438 1460.79 570.095 1459.64 568.897C1458.52 567.657 1457.16 566.727 1455.54 566.107C1453.93 565.446 1452.16 565.116 1450.21 565.116C1448.15 565.116 1446.18 565.487 1444.32 566.231C1442.46 566.934 1440.75 567.988 1439.18 569.393C1437.61 570.798 1436.29 572.533 1435.21 574.6C1434.14 576.625 1433.29 579.311 1432.67 582.658C1432.09 585.964 1431.62 591.749 1431.24 600.014C1430.91 608.279 1430.75 615.243 1430.75 620.904C1428.1 620.821 1426.29 620.78 1425.29 620.78C1424.22 620.78 1422.34 620.821 1419.65 620.904Z" fill="#444444"/>
<path d="M1375.21 620.904C1376.7 597.06 1377.44 578.03 1377.44 563.814L1377.38 558.111C1379.49 558.152 1381.22 558.173 1382.59 558.173C1384.16 558.173 1385.91 558.152 1387.85 558.111L1387.36 568.401C1388.89 565.839 1390.23 563.917 1391.39 562.636C1392.59 561.314 1393.93 560.239 1395.42 559.413C1396.9 558.545 1398.58 557.884 1400.44 557.429C1402.34 556.933 1404.3 556.685 1406.33 556.685C1408.06 556.685 1409.78 556.892 1411.47 557.305C1411.51 560.033 1411.66 563.091 1411.91 566.479C1409.34 565.777 1407.05 565.425 1405.02 565.425C1402.59 565.425 1400.4 565.839 1398.45 566.665C1396.51 567.45 1394.76 568.669 1393.19 570.322C1391.66 571.934 1390.4 573.876 1389.4 576.149C1388.58 577.968 1387.94 580.323 1387.48 583.216C1387.07 586.109 1386.74 591.377 1386.49 599.023C1386.33 604.601 1386.24 610.511 1386.24 616.751V620.904C1384.01 620.821 1382.21 620.78 1380.85 620.78C1379.61 620.78 1377.73 620.821 1375.21 620.904Z" fill="#444444"/>
<path d="M1331.88 556.685C1336.22 556.685 1340.35 557.305 1344.28 558.545C1348.2 559.785 1351.59 561.748 1354.44 564.434C1357.34 567.12 1359.53 570.508 1361.01 574.6C1362.5 578.691 1363.24 583.009 1363.24 587.555C1363.24 592.473 1362.44 597.184 1360.83 601.688C1359.26 606.192 1357.03 610.015 1354.13 613.156C1351.28 616.296 1347.77 618.611 1343.6 620.098C1339.46 621.545 1335.02 622.268 1330.27 622.268C1325.85 622.268 1321.67 621.607 1317.75 620.284C1313.82 618.962 1310.41 616.896 1307.52 614.085C1304.67 611.275 1302.5 607.845 1301.01 603.796C1299.52 599.704 1298.78 595.427 1298.78 590.964C1298.78 584.228 1300.14 578.174 1302.87 572.802C1305.6 567.388 1309.61 563.359 1314.89 560.714C1320.18 558.028 1325.85 556.685 1331.88 556.685ZM1331.63 564.558C1327.42 564.558 1323.53 565.611 1319.98 567.719C1316.47 569.827 1313.86 573.009 1312.17 577.265C1310.47 581.48 1309.63 586.088 1309.63 591.088C1309.63 595.469 1310.33 599.415 1311.73 602.928C1313.14 606.399 1315.45 609.209 1318.68 611.358C1321.9 613.507 1325.78 614.581 1330.33 614.581C1333.43 614.581 1336.36 614.065 1339.13 613.032C1341.9 611.957 1344.32 610.201 1346.38 607.763C1348.45 605.325 1349.98 602.349 1350.97 598.837C1351.96 595.283 1352.46 591.563 1352.46 587.679C1352.46 584.042 1351.96 580.633 1350.97 577.451C1349.98 574.269 1348.45 571.728 1346.38 569.827C1344.36 567.884 1342.05 566.521 1339.44 565.735C1336.88 564.95 1334.28 564.558 1331.63 564.558Z" fill="#444444"/>
<path d="M1264.87 620.904L1265.55 609.499L1267.23 565.86H1259.48C1259.69 563.835 1259.85 561.293 1259.97 558.235H1267.97C1268.05 554.392 1268.14 551.458 1268.22 549.433C1268.34 547.367 1268.61 545.528 1269.02 543.916C1269.48 542.263 1270.12 540.879 1270.95 539.763C1271.81 538.606 1272.99 537.552 1274.48 536.602C1276.01 535.651 1277.76 534.969 1279.75 534.556C1281.77 534.102 1284.09 533.874 1286.69 533.874C1290.12 533.874 1294.11 534.391 1298.65 535.424C1298.74 537.903 1298.94 540.528 1299.27 543.296C1295.35 541.933 1291.77 541.251 1288.55 541.251C1286.98 541.251 1285.53 541.457 1284.21 541.871C1282.89 542.284 1281.81 542.842 1280.99 543.544C1280.2 544.205 1279.54 545.094 1279 546.21C1278.51 547.325 1278.16 548.648 1277.95 550.177C1277.79 551.706 1277.7 553.504 1277.7 555.57L1277.64 558.235H1294.87C1294.67 560.012 1294.48 562.554 1294.32 565.86H1277.7L1276.59 597.535L1276.03 620.904C1273.47 620.822 1271.59 620.78 1270.39 620.78C1269.23 620.78 1267.39 620.822 1264.87 620.904Z" fill="#444444"/>
<path d="M1254.09 612.722C1253.63 614.747 1253.14 617.433 1252.6 620.78C1249.79 621.441 1247.56 621.855 1245.9 622.02C1244.25 622.185 1242.68 622.268 1241.19 622.268C1237.51 622.268 1234.54 621.813 1232.27 620.904C1230.03 619.954 1228.32 618.466 1227.12 616.441C1225.92 614.375 1225.32 611.585 1225.32 608.073C1225.32 607.618 1225.34 606.812 1225.39 605.655C1225.43 604.498 1225.63 600.469 1226.01 593.568L1227.49 565.797H1219.25C1219.41 564.062 1219.56 561.582 1219.68 558.359H1228.11C1228.32 556.045 1228.53 552.098 1228.73 546.519C1232.62 545.776 1235.9 545.073 1238.59 544.412C1238.3 550.528 1238.13 555.177 1238.09 558.359H1255.33C1255.12 560.962 1254.99 563.442 1254.95 565.797H1237.78L1236.11 600.696L1236.05 603.362C1236.05 606.378 1236.38 608.651 1237.04 610.18C1237.74 611.668 1238.77 612.742 1240.14 613.404C1241.5 614.065 1242.93 614.395 1244.42 614.395C1245.45 614.395 1246.56 614.313 1247.76 614.147C1248.96 613.982 1251.07 613.507 1254.09 612.722Z" fill="#444444"/>
<path d="M1158.94 568.091C1159.31 566.273 1159.7 563.587 1160.11 560.033C1165.07 558.752 1169.37 557.884 1173.01 557.429C1176.68 556.933 1180.26 556.685 1183.73 556.685C1187.45 556.685 1190.92 557.037 1194.14 557.739C1197.41 558.4 1200.12 559.495 1202.26 561.024C1204.41 562.553 1205.84 564.31 1206.54 566.293C1207.24 568.277 1207.6 570.405 1207.6 572.678C1207.6 575.529 1207.37 580.323 1206.91 587.059C1206.5 593.754 1206.17 599.952 1205.92 605.655C1205.71 611.358 1205.61 616.441 1205.61 620.904C1203.38 620.821 1201.56 620.78 1200.16 620.78C1198.83 620.78 1196.95 620.821 1194.52 620.904L1195.82 603.982L1196.75 583.96C1195.3 585.075 1194.21 585.861 1193.46 586.315C1192.76 586.77 1191.95 587.204 1191.04 587.617C1190.14 587.989 1189.12 588.361 1188.01 588.733C1186.93 589.063 1184.8 589.662 1181.62 590.53C1178.48 591.398 1176.25 592.059 1174.93 592.514C1172.08 593.423 1169.82 594.332 1168.17 595.241C1166.52 596.15 1165.13 597.142 1164.02 598.217C1162.9 599.291 1162.12 600.366 1161.66 601.44C1161.13 602.762 1160.86 604.147 1160.86 605.593C1160.86 607.825 1161.52 609.767 1162.84 611.42C1164.16 613.073 1165.82 614.23 1167.8 614.891C1169.82 615.511 1172.24 615.821 1175.05 615.821C1176.79 615.821 1178.61 615.697 1180.51 615.449C1182.41 615.201 1184.95 614.561 1188.13 613.528C1187.55 615.139 1186.89 617.619 1186.15 620.966C1183.13 621.545 1180.67 621.896 1178.77 622.02C1176.87 622.185 1175.07 622.268 1173.38 622.268C1167.72 622.268 1163.29 621.607 1160.11 620.284C1156.93 618.962 1154.55 616.958 1152.98 614.271C1151.41 611.544 1150.63 608.589 1150.63 605.407C1150.63 603.548 1150.9 601.833 1151.43 600.262C1152.01 598.692 1152.78 597.266 1153.73 595.985C1154.68 594.704 1156.02 593.423 1157.76 592.142C1159.53 590.861 1161.37 589.807 1163.27 588.981C1165.22 588.154 1167.47 587.348 1170.03 586.563C1172.59 585.737 1176.7 584.642 1182.37 583.278C1184.18 582.865 1185.73 582.451 1187.02 582.038C1188.3 581.583 1189.43 581.15 1190.42 580.736C1191.42 580.323 1192.28 579.848 1193.03 579.311C1193.77 578.732 1194.45 578.05 1195.07 577.265C1195.69 576.439 1196.15 575.612 1196.44 574.786C1196.73 573.959 1196.87 573.133 1196.87 572.306C1196.87 570.281 1196.21 568.546 1194.89 567.099C1193.57 565.653 1191.83 564.64 1189.68 564.062C1187.57 563.483 1185.07 563.194 1182.18 563.194C1179.49 563.194 1176.73 563.421 1173.87 563.876C1171.06 564.289 1168.63 564.806 1166.56 565.425C1164.53 566.004 1161.99 566.893 1158.94 568.091Z" fill="#444444"/>
<path d="M1126.52 620.904C1127.34 608.176 1128.15 593.092 1128.93 575.653C1129.47 562.967 1129.86 549.846 1130.11 536.292L1135.88 536.353C1137.07 536.353 1138.91 536.333 1141.39 536.292L1139.47 572.678L1138.11 609.498L1137.86 620.904C1135.42 620.821 1133.6 620.78 1132.4 620.78C1131.91 620.78 1129.95 620.821 1126.52 620.904Z" fill="#444444"/>
<path d="M1050.4 648.922C1051.22 638.26 1051.99 623.755 1052.69 605.407C1053.43 587.059 1053.85 572.058 1053.93 560.405C1060.71 558.958 1066.12 557.987 1070.17 557.491C1074.26 556.954 1078.35 556.685 1082.44 556.685C1088.89 556.685 1094.49 557.718 1099.24 559.785C1103.99 561.81 1107.69 565.405 1110.34 570.57C1112.98 575.695 1114.3 581.501 1114.3 587.989C1114.3 592.493 1113.68 596.853 1112.44 601.068C1111.2 605.242 1109.3 608.982 1106.74 612.288C1104.22 615.594 1101.16 618.094 1097.57 619.788C1093.97 621.441 1089.96 622.268 1085.54 622.268C1082.9 622.268 1080.36 621.937 1077.92 621.276C1075.48 620.656 1073.35 619.83 1071.53 618.796C1069.76 617.763 1068.25 616.606 1067.01 615.325C1065.81 614.044 1064.34 612.123 1062.61 609.56L1061.86 634.107C1061.7 638.116 1061.62 641.009 1061.62 642.785V648.922C1059.51 648.84 1057.67 648.798 1056.1 648.798C1054.65 648.798 1052.75 648.84 1050.4 648.922ZM1064.59 567.781L1064.16 572.492L1063.85 578.939C1063.68 582.327 1063.56 585.096 1063.47 587.245C1063.39 589.353 1063.35 590.84 1063.35 591.708C1063.35 594.766 1063.66 597.659 1064.28 600.386C1064.94 603.114 1066.22 605.614 1068.12 607.887C1070.07 610.118 1072.34 611.813 1074.94 612.97C1077.55 614.127 1080.23 614.705 1083 614.705C1086.89 614.705 1090.4 613.631 1093.54 611.482C1096.72 609.333 1099.2 606.13 1100.98 601.874C1102.75 597.618 1103.64 592.968 1103.64 587.927C1103.64 582.844 1102.71 578.463 1100.85 574.786C1098.99 571.108 1096.49 568.463 1093.35 566.851C1090.21 565.198 1086.66 564.372 1082.69 564.372C1077.03 564.372 1071 565.508 1064.59 567.781Z" fill="#444444"/>
<path d="M991.508 620.904C992.334 608.176 993.14 593.092 993.925 575.653C994.463 562.967 994.855 549.846 995.103 536.292L1000.87 536.353C1002.07 536.353 1003.91 536.333 1006.38 536.292L1004.46 572.678L1003.1 609.498L1002.85 620.904C1000.41 620.821 998.595 620.78 997.397 620.78C996.901 620.78 994.938 620.821 991.508 620.904Z" fill="#444444"/>
<path d="M927.971 568.091C928.343 566.273 928.736 563.587 929.149 560.033C934.108 558.752 938.406 557.884 942.042 557.429C945.72 556.933 949.295 556.685 952.766 556.685C956.485 556.685 959.957 557.037 963.18 557.739C966.445 558.4 969.151 559.495 971.3 561.024C973.449 562.553 974.875 564.31 975.577 566.293C976.28 568.277 976.631 570.405 976.631 572.678C976.631 575.529 976.404 580.323 975.949 587.059C975.536 593.754 975.206 599.952 974.958 605.655C974.751 611.358 974.648 616.441 974.648 620.904C972.416 620.821 970.598 620.78 969.193 620.78C967.87 620.78 965.99 620.821 963.552 620.904L964.854 603.982L965.784 583.96C964.337 585.075 963.242 585.861 962.498 586.315C961.796 586.77 960.99 587.204 960.081 587.617C959.172 587.989 958.159 588.361 957.043 588.733C955.969 589.063 953.841 589.662 950.659 590.53C947.518 591.398 945.286 592.059 943.964 592.514C941.113 593.423 938.86 594.332 937.207 595.241C935.554 596.15 934.17 597.142 933.054 598.217C931.939 599.291 931.153 600.366 930.699 601.44C930.162 602.762 929.893 604.147 929.893 605.593C929.893 607.825 930.554 609.767 931.877 611.42C933.199 613.073 934.852 614.23 936.835 614.891C938.86 615.511 941.278 615.821 944.088 615.821C945.824 615.821 947.642 615.697 949.543 615.449C951.444 615.201 953.985 614.561 957.167 613.528C956.589 615.139 955.928 617.619 955.184 620.966C952.167 621.545 949.708 621.896 947.807 622.02C945.906 622.185 944.109 622.268 942.414 622.268C936.753 622.268 932.331 621.607 929.149 620.284C925.967 618.962 923.591 616.958 922.021 614.271C920.45 611.544 919.665 608.589 919.665 605.407C919.665 603.548 919.934 601.833 920.471 600.262C921.049 598.692 921.814 597.266 922.764 595.985C923.715 594.704 925.058 593.423 926.794 592.142C928.571 590.861 930.409 589.807 932.31 588.981C934.253 588.154 936.505 587.348 939.067 586.563C941.629 585.737 945.741 584.642 951.402 583.278C953.221 582.865 954.77 582.451 956.052 582.038C957.333 581.583 958.469 581.15 959.461 580.736C960.453 580.323 961.32 579.848 962.064 579.311C962.808 578.732 963.49 578.05 964.11 577.265C964.73 576.439 965.184 575.612 965.474 574.786C965.763 573.959 965.907 573.133 965.907 572.306C965.907 570.281 965.246 568.546 963.924 567.099C962.601 565.653 960.866 564.64 958.717 564.062C956.609 563.483 954.109 563.194 951.217 563.194C948.53 563.194 945.762 563.421 942.91 563.876C940.1 564.289 937.662 564.806 935.596 565.425C933.571 566.004 931.029 566.893 927.971 568.091Z" fill="#444444"/>
<path d="M914.892 612.722C914.437 614.747 913.942 617.433 913.404 620.78C910.594 621.441 908.363 621.855 906.71 622.02C905.057 622.185 903.486 622.268 901.999 622.268C898.321 622.268 895.345 621.813 893.072 620.904C890.841 619.954 889.126 618.466 887.928 616.441C886.729 614.375 886.13 611.585 886.13 608.073C886.13 607.618 886.151 606.812 886.192 605.655C886.233 604.498 886.44 600.469 886.812 593.568L888.299 565.797H880.055C880.22 564.062 880.365 561.582 880.489 558.359H888.919C889.126 556.045 889.333 552.098 889.539 546.519C893.424 545.776 896.709 545.073 899.395 544.412C899.106 550.528 898.941 555.177 898.899 558.359H916.132C915.925 560.962 915.801 563.442 915.76 565.797H898.589L896.916 600.696L896.854 603.362C896.854 606.378 897.184 608.651 897.845 610.18C898.548 611.668 899.581 612.742 900.945 613.404C902.309 614.065 903.734 614.395 905.222 614.395C906.255 614.395 907.371 614.313 908.569 614.147C909.768 613.982 911.875 613.507 914.892 612.722Z" fill="#444444"/>
<path d="M857.678 544.598C857.802 540.714 857.864 537.78 857.864 535.796C860.136 535.879 862.141 535.92 863.876 535.92C866.067 535.92 868.05 535.879 869.827 535.796C869.744 537.077 869.62 540.011 869.455 544.598C867.224 544.557 865.302 544.536 863.69 544.536C862.079 544.536 860.074 544.557 857.678 544.598ZM854.888 620.905L855.942 605.284L857.12 578.629L857.616 558.112L863.318 558.174L868.897 558.112C868.443 564.558 868.029 571.315 867.658 578.381C867.286 585.407 866.976 593.093 866.728 601.441C866.521 609.788 866.418 616.276 866.418 620.905C863.814 620.822 861.955 620.781 860.839 620.781C859.806 620.781 857.822 620.822 854.888 620.905Z" fill="#444444"/>
<path d="M781.867 639.066C787.322 640.719 791.889 641.835 795.567 642.414C799.244 642.992 802.592 643.281 805.608 643.281C809.038 643.281 812.22 642.806 815.154 641.856C817.593 641.071 819.68 639.955 821.415 638.508C822.738 637.393 823.833 635.946 824.7 634.169C825.775 631.814 826.539 628.818 826.994 625.181C827.366 622.247 827.655 616.4 827.862 607.639C826.87 609.498 825.961 611.007 825.134 612.164C824.349 613.321 823.275 614.519 821.911 615.759C820.547 616.958 818.956 618.032 817.138 618.982C815.32 619.933 813.212 620.677 810.815 621.214C808.419 621.793 805.939 622.082 803.377 622.082C799.616 622.082 796.083 621.565 792.777 620.532C789.512 619.499 786.578 617.784 783.975 615.387C781.413 612.99 779.45 609.932 778.086 606.213C776.764 602.494 776.103 598.609 776.103 594.559C776.103 588.981 777.094 583.67 779.078 578.629C781.103 573.587 784.037 569.372 787.88 565.983C791.765 562.595 796.124 560.198 800.959 558.793C805.836 557.388 811.167 556.685 816.952 556.685C823.316 556.685 831.23 557.532 840.693 559.227L840.011 566.851L838.152 601.626C838.152 602.329 838.048 606.544 837.842 614.271L837.47 627.103C837.263 629.83 836.891 632.227 836.354 634.293C835.858 635.988 835.197 637.599 834.37 639.128C833.627 640.533 832.697 641.814 831.581 642.971C830.507 644.17 829.246 645.244 827.8 646.195C826.353 647.145 824.804 647.91 823.151 648.488C820.837 649.315 818.44 649.914 815.96 650.286C813.15 650.741 810.34 650.968 807.53 650.968C803.48 650.968 799.492 650.761 795.567 650.348C791.682 649.935 787.322 649.15 782.487 647.992L782.301 644.583C782.26 643.757 782.115 641.918 781.867 639.066ZM829.536 565.921C824.907 565.012 820.589 564.558 816.58 564.558C812.53 564.558 808.77 565.033 805.299 565.983C801.869 566.934 798.707 568.669 795.814 571.19C792.963 573.711 790.732 576.976 789.12 580.984C787.508 584.993 786.702 589.146 786.702 593.444C786.702 597.452 787.426 601.109 788.872 604.415C790.36 607.721 792.632 610.222 795.69 611.916C798.749 613.569 802.22 614.395 806.104 614.395C809.452 614.395 812.427 613.817 815.03 612.66C817.675 611.461 820.01 609.643 822.035 607.205C824.143 604.684 825.713 601.791 826.746 598.527C827.531 596.212 828.13 592.783 828.544 588.237C828.874 584.6 829.205 577.162 829.536 565.921Z" fill="#444444"/>
<path d="M752.423 544.598C752.547 540.714 752.609 537.78 752.609 535.796C754.882 535.879 756.886 535.92 758.622 535.92C760.812 535.92 762.796 535.879 764.573 535.796C764.49 537.077 764.366 540.011 764.201 544.598C761.969 544.557 760.048 544.536 758.436 544.536C756.824 544.536 754.82 544.557 752.423 544.598ZM749.634 620.905L750.688 605.284L751.865 578.629L752.361 558.112L758.064 558.174L763.643 558.112C763.188 564.558 762.775 571.315 762.403 578.381C762.031 585.407 761.721 593.093 761.473 601.441C761.267 609.788 761.163 616.276 761.163 620.905C758.56 620.822 756.7 620.781 755.585 620.781C754.551 620.781 752.568 620.822 749.634 620.905Z" fill="#444444"/>
<path d="M732.587 620.904C730.149 620.821 728.455 620.78 727.504 620.78C726.471 620.78 724.674 620.821 722.112 620.904L722.855 607.515C721.533 609.829 720.397 611.627 719.446 612.908C718.496 614.147 717.359 615.325 716.037 616.441C714.756 617.557 713.247 618.569 711.512 619.478C709.817 620.346 707.916 621.028 705.809 621.524C703.701 622.02 701.47 622.268 699.114 622.268C695.106 622.268 691.345 621.545 687.833 620.098C684.361 618.652 681.407 616.586 678.968 613.899C676.53 611.213 674.774 608.093 673.7 604.539C672.625 600.944 672.088 597.204 672.088 593.32C672.088 588.113 673.1 582.989 675.125 577.947C677.15 572.905 680.002 568.752 683.679 565.487C687.399 562.181 691.593 559.888 696.263 558.607C700.933 557.326 705.892 556.685 711.14 556.685C714.776 556.685 719.095 557.099 724.095 557.925C724.302 553.421 724.405 549.681 724.405 546.705C724.405 542.408 724.384 538.936 724.343 536.292L729.984 536.353C731.389 536.353 733.269 536.333 735.625 536.292L733.827 571.252L732.587 611.296V620.904ZM723.661 565.735C721.182 564.992 719.054 564.516 717.277 564.31C715.541 564.103 713.847 564 712.194 564C708.226 564 704.425 564.578 700.788 565.735C697.193 566.851 694.011 568.711 691.242 571.314C688.514 573.918 686.407 577.224 684.919 581.232C683.432 585.241 682.688 589.167 682.688 593.01C682.688 596.853 683.39 600.448 684.795 603.796C686.2 607.102 688.37 609.705 691.304 611.606C694.279 613.466 697.73 614.395 701.656 614.395C704.011 614.395 706.16 614.085 708.102 613.466C710.045 612.804 711.801 611.854 713.371 610.614C714.983 609.374 716.491 607.701 717.896 605.593C719.301 603.486 720.417 601.047 721.244 598.279C721.946 595.841 722.463 592.555 722.793 588.423C722.959 586.398 723.145 582.493 723.351 576.707L723.661 565.735Z" fill="#444444"/>
</svg>
